<?xml version="1.0" encoding="utf-8"?>
<svg width="621px" height="620px" viewbox="0 0 621 620" version="1.1" xmlns:xlink="http://www.w3.org/1999/xlink" xmlns="http://www.w3.org/2000/svg">
  <defs>
    <linearGradient x1="-5.170703E-06" y1="0.50001657" x2="0.9999999" y2="0.50001657" id="gradient_1">
      <stop offset="0" stop-color="#D00101" />
      <stop offset="1" stop-color="#8C1616" />
    </linearGradient>
    <linearGradient x1="0" y1="0.49998987" x2="0.99999434" y2="0.49998987" id="gradient_2">
      <stop offset="0" stop-color="#F03333" />
      <stop offset="1" stop-color="#E22222" />
    </linearGradient>
    <linearGradient x1="0" y1="0" x2="1" y2="1" id="gradient_3">
      <stop offset="0" stop-color="#F44F5A" />
      <stop offset="1" stop-color="#E52030" />
    </linearGradient>
    <linearGradient x1="0.059000254" y1="0.941" x2="0.5046363" y2="0.49536368" id="gradient_4">
      <stop offset="0" stop-color="#F44F5A" />
      <stop offset="0.337" stop-color="#F34C57" />
      <stop offset="0.595" stop-color="#F0424F" />
      <stop offset="0.825" stop-color="#EB3240" />
      <stop offset="1" stop-color="#E52030" />
    </linearGradient>
    <path d="M1.71415 2.0543L500 0L498.286 497.946L0 500L1.71415 2.0543Z" id="path_1" />
    <path d="M5.11124 3.37912L285.953 0.0244514Q286.053 0.0232607 286.152 0.0319944Q286.251 0.0407282 286.349 0.0592998Q286.447 0.0778714 286.543 0.106096Q286.638 0.134322 286.731 0.17192Q286.823 0.209519 286.911 0.256118Q286.999 0.302716 287.082 0.357853Q287.165 0.41299 287.243 0.476117Q287.32 0.539244 287.39 0.609736Q287.461 0.680227 287.524 0.757383Q287.587 0.834539 287.642 0.917594Q287.697 1.00065 287.744 1.08878Q287.791 1.17691 287.828 1.26924Q287.866 1.36157 287.894 1.45718Q287.922 1.55279 287.941 1.65074Q287.959 1.74869 287.968 1.848Q287.977 1.94731 287.976 2.047L284.864 264.646Q284.863 264.742 284.852 264.839Q284.842 264.935 284.822 265.029Q284.802 265.124 284.773 265.216Q284.745 265.309 284.707 265.398Q284.67 265.487 284.624 265.572Q284.578 265.657 284.524 265.737Q284.47 265.818 284.408 265.892Q284.347 265.967 284.278 266.036Q284.21 266.104 284.135 266.165Q284.061 266.227 283.98 266.281Q283.9 266.335 283.815 266.381Q283.73 266.427 283.641 266.464Q283.552 266.502 283.459 266.531Q283.367 266.559 283.272 266.579Q283.178 266.599 283.082 266.609Q282.986 266.62 282.889 266.621L2.04699 269.976Q1.94731 269.977 1.848 269.968Q1.74868 269.959 1.65073 269.941Q1.55278 269.922 1.45717 269.894Q1.36155 269.866 1.26922 269.828Q1.17689 269.79 1.08875 269.744Q1.00062 269.697 0.91756 269.642Q0.8345 269.587 0.757338 269.524Q0.680176 269.461 0.609678 269.39Q0.53918 269.32 0.476046 269.243Q0.412911 269.165 0.357766 269.082Q0.302622 268.999 0.256015 268.911Q0.209408 268.823 0.171801 268.731Q0.134193 268.638 0.105959 268.543Q0.077725 268.447 0.0591442 268.349Q0.0405633 268.251 0.0318202 268.152Q0.0230771 268.053 0.0242585 267.953L3.13625 5.35429Q3.1374 5.25758 3.14788 5.16144Q3.15835 5.06529 3.17806 4.97061Q3.19777 4.87592 3.22653 4.78358Q3.25529 4.69124 3.29283 4.60211Q3.33036 4.51297 3.37633 4.42788Q3.4223 4.34279 3.47626 4.26253Q3.53023 4.18227 3.59169 4.1076Q3.65316 4.03293 3.72154 3.96454Q3.78993 3.89615 3.86459 3.83468Q3.93926 3.77321 4.01951 3.71923Q4.09977 3.66526 4.18485 3.61928Q4.26994 3.57331 4.35907 3.53576Q4.4482 3.49822 4.54054 3.46945Q4.63287 3.44068 4.72756 3.42096Q4.82224 3.40125 4.91839 3.39076Q5.01453 3.38028 5.11124 3.37912L5.11124 3.37912Z" transform="matrix(0.8660254 -0.5 0.5 0.8660254 -0.000118255615 144)" id="path_2" />
    <clipPath id="mask_1">
      <use xlink:href="#path_1" />
    </clipPath>
    <clipPath id="mask_2">
      <use xlink:href="#path_2" />
    </clipPath>
  </defs>
  <g id="Group" transform="translate(60 40)">
    <path d="M1.71415 2.0543L500 0L498.286 497.946L0 500L1.71415 2.0543Z" id="MasterBackground" fill="none" fill-rule="evenodd" stroke="none" />
    <g clip-path="url(#mask_1)">
      <g id="Mappe" transform="matrix(0.9848077 0.17364818 -0.17364818 0.9848077 94.8443 49.3797)">
        <path d="M14.8885 0C4.20849 2.83 -2.15151 13.78 0.668487 24.45L46.5585 197.77C48.2685 204.23 46.6385 211.13 42.2085 216.14L32.5085 227.11C28.0785 232.12 26.4485 239.01 28.1585 245.48L51.0185 331.8C53.8485 342.48 64.7985 348.84 75.4685 346.02L104.468 338.34L291.678 107.74L14.8885 0L14.8885 0Z" transform="translate(0 43.599823)" id="Shape" fill="url(#gradient_1)" fill-rule="evenodd" stroke="none" />
        <path d="M321.58 320.523L89.57 381.952L0 43.6024L152.491 0.120607C163.171 -2.7094 266.094 45.0995 268.914 55.7695L335.8 296.053C338.63 306.743 332.26 317.693 321.58 320.523L321.58 320.523Z" transform="translate(14.890198 -3.0517578E-05)" id="Shape" fill="url(#gradient_2)" fill-rule="evenodd" stroke="none" />
      </g>
      <path d="M0 0L214.99 0L260 49.9942L260 319.994C260 319.994 258.522 324.352 254.77 326.852C251.017 329.352 244.99 329.994 244.99 329.994L124.99 340L36.81 340C16.48 340 0 323.52 0 303.19L0 0L0 0Z" transform="translate(124.6698 93.56781)" id="Shadow2" fill="#000000" fill-opacity="0.05" fill-rule="evenodd" stroke="none" />
      <path d="M0 0L199.413 0C227.35 0 250 22.65 250 50.59L249.89 322.253C249.89 322.253 247.614 325.377 244.11 327.46C240.503 329.604 234.999 330 234.999 330L28.39 330C12.7102 330 0 317.29 0 301.61L0 0" transform="translate(134.65942 93.56232)" id="Shadow1" fill="#000000" fill-opacity="0.07" fill-rule="evenodd" stroke="none" />
      <path d="M287.5 105.417L287.5 345C287.5 355.59 278.923 364.167 268.333 364.167L19.1667 364.167C8.57709 364.167 0 355.59 0 345L0 19.1667C0 8.57708 8.57709 0 19.1667 0L182.083 0L287.5 105.417L287.5 105.417Z" transform="translate(140.91003 51.478577)" id="Shape" fill="#FFADC8" fill-rule="evenodd" stroke="none" />
      <g id="EyeBackground" transform="matrix(0.8660254 0.5 -0.5 0.8660254 212.70807 21.29248)" opacity="0.3">
        <path d="M5.11124 3.37912L285.953 0.0244514Q286.053 0.0232607 286.152 0.0319944Q286.251 0.0407282 286.349 0.0592998Q286.447 0.0778714 286.543 0.106096Q286.638 0.134322 286.731 0.17192Q286.823 0.209519 286.911 0.256118Q286.999 0.302716 287.082 0.357853Q287.165 0.41299 287.243 0.476117Q287.32 0.539244 287.39 0.609736Q287.461 0.680227 287.524 0.757383Q287.587 0.834539 287.642 0.917594Q287.697 1.00065 287.744 1.08878Q287.791 1.17691 287.828 1.26924Q287.866 1.36157 287.894 1.45718Q287.922 1.55279 287.941 1.65074Q287.959 1.74869 287.968 1.848Q287.977 1.94731 287.976 2.047L284.864 264.646Q284.863 264.742 284.852 264.839Q284.842 264.935 284.822 265.029Q284.802 265.124 284.773 265.216Q284.745 265.309 284.707 265.398Q284.67 265.487 284.624 265.572Q284.578 265.657 284.524 265.737Q284.47 265.818 284.408 265.892Q284.347 265.967 284.278 266.036Q284.21 266.104 284.135 266.165Q284.061 266.227 283.98 266.281Q283.9 266.335 283.815 266.381Q283.73 266.427 283.641 266.464Q283.552 266.502 283.459 266.531Q283.367 266.559 283.272 266.579Q283.178 266.599 283.082 266.609Q282.986 266.62 282.889 266.621L2.04699 269.976Q1.94731 269.977 1.848 269.968Q1.74868 269.959 1.65073 269.941Q1.55278 269.922 1.45717 269.894Q1.36155 269.866 1.26922 269.828Q1.17689 269.79 1.08875 269.744Q1.00062 269.697 0.91756 269.642Q0.8345 269.587 0.757338 269.524Q0.680176 269.461 0.609678 269.39Q0.53918 269.32 0.476046 269.243Q0.412911 269.165 0.357766 269.082Q0.302622 268.999 0.256015 268.911Q0.209408 268.823 0.171801 268.731Q0.134193 268.638 0.105959 268.543Q0.077725 268.447 0.0591442 268.349Q0.0405633 268.251 0.0318202 268.152Q0.0230771 268.053 0.0242585 267.953L3.13625 5.35429Q3.1374 5.25758 3.14788 5.16144Q3.15835 5.06529 3.17806 4.97061Q3.19777 4.87592 3.22653 4.78358Q3.25529 4.69124 3.29283 4.60211Q3.33036 4.51297 3.37633 4.42788Q3.4223 4.34279 3.47626 4.26253Q3.53023 4.18227 3.59169 4.1076Q3.65316 4.03293 3.72154 3.96454Q3.78993 3.89615 3.86459 3.83468Q3.93926 3.77321 4.01951 3.71923Q4.09977 3.66526 4.18485 3.61928Q4.26994 3.57331 4.35907 3.53576Q4.4482 3.49822 4.54054 3.46945Q4.63287 3.44068 4.72756 3.42096Q4.82224 3.40125 4.91839 3.39076Q5.01453 3.38028 5.11124 3.37912L5.11124 3.37912Z" transform="matrix(0.8660254 -0.5 0.5 0.8660254 -0.000118255615 144)" id="Background" fill="none" fill-rule="evenodd" stroke="none" />
        <g clip-path="url(#mask_2)">
          <path d="M175 0C70.9532 0 3.74486 105.929 2.5293 107.857C0.893123 109.889 0.00176976 112.406 0 115C0.00206252 117.225 0.659035 119.402 1.89125 121.267C1.90637 121.289 1.92156 121.312 1.93683 121.334C2.13744 121.742 58.553 230 175 230C290.953 230 347.286 122.806 347.972 121.491C348.018 121.417 348.064 121.342 348.109 121.267C349.341 119.402 349.998 117.225 350 115C350 112.418 349.117 109.91 347.495 107.881C347.487 107.873 347.479 107.866 347.471 107.858C346.255 105.929 279.047 0 175 0L175 0ZM174.997 34.5007C220.1 34.5007 256.663 70.5416 256.663 115.001C256.663 159.46 220.1 195.501 174.997 195.501C129.893 195.501 93.3301 159.46 93.3301 115.001C93.3301 70.5416 129.893 34.5007 174.997 34.5007L174.997 34.5007ZM174.998 80.5008C155.668 80.5008 139.998 95.947 139.998 115.001C139.998 134.055 155.668 149.501 174.998 149.501C194.328 149.501 209.998 134.055 209.998 115.001C209.998 95.947 194.328 80.5008 174.998 80.5008L174.998 80.5008Z" transform="translate(31.830933 108.3603)" id="Shape" fill="url(#gradient_3)" fill-rule="evenodd" stroke="none" />
        </g>
      </g>
      <path d="M0 0L0 86.25C0 96.8396 8.57709 105.417 19.1667 105.417L105.417 105.417L0 0L0 0Z" transform="translate(322.99323 51.478577)" id="Shape" fill="url(#gradient_4)" fill-rule="evenodd" stroke="none" />
      <g id="PDF-Letters" transform="translate(174.66003 188.56201)">
        <path d="M0 1.96317C6.68804 0.79257 15.8056 0 26.5747 0C40.3193 0 50.7608 2.01196 58.0903 7.73078C64.8466 12.8399 68.3817 21.0097 68.3817 29.8135C68.3817 40.2024 64.7647 48.043 58.6909 53.5423C51.2112 60.2488 39.5276 63.2972 28.6493 63.2972C26.5883 63.2972 24.6502 63.2362 22.944 63.0899L22.944 99.1343L1.30167e-05 99.1343L1.30167e-05 1.96317L0 1.96317ZM22.9431 46.6286C24.3763 46.8847 25.9732 46.9578 28.0752 46.9578C39.6359 46.9578 45.4777 40.4221 45.4777 31.1305C45.4777 22.4852 40.5777 16.2543 29.8632 16.2543C26.874 16.2543 24.4172 16.5591 22.9431 16.9859L22.9431 46.6286L22.9431 46.6286Z" id="Shape" fill="#E52030" fill-rule="evenodd" stroke="none" />
        <path d="M0 1.97538C6.70167 0.792593 16.1195 0 26.1243 0C42.5577 0 53.668 3.09718 62.0076 9.41348C72.2034 17.0589 77.8814 29.7525 77.8814 48.238C77.8814 67.7966 71.4527 81.5998 61.448 89.3915C52.4669 96.5248 39.1727 100 21.5791 100C12.5298 100 4.85905 99.3537 0 98.7562L0 1.97538L0 1.97538ZM23.0245 83.0867C24.4713 83.4037 26.6961 83.4037 28.4568 83.4037C42.8839 83.4647 53.7622 73.7463 53.7622 48.0665C53.7758 27.8983 45.3407 16.2411 29.6443 16.2411C26.7917 16.2411 24.6078 16.424 23.0109 16.8386L23.0109 83.0867L23.0245 83.0867Z" transform="translate(82.371216 0)" id="Shape" fill="#E52030" fill-rule="evenodd" stroke="none" />
        <path d="M0 0L55.0739 0L55.0739 17.5101L23.1215 17.5101L23.1215 41.4828L53.0811 41.4828L53.0811 58.4685L23.1215 58.4685L23.1215 98.5856L2.60335e-05 98.5856L2.60335e-05 0L0 0Z" transform="translate(174.92615 0.5480957)" id="Shape" fill="#E52030" fill-rule="evenodd" stroke="none" />
      </g>
    </g>
  </g>
</svg>